<?xml version='1.0' encoding='utf-8'?>
<svg xmlns="http://www.w3.org/2000/svg" width="100%" height="100%" version="1.1" style="shape-rendering:geometricPrecision; text-rendering:geometricPrecision; image-rendering:optimizeQuality; fill-rule:evenodd; clip-rule:evenodd" viewBox="0 0 9144 9144"> <defs> <style type="text/css">  .fil0 {fill:white} .fil1 {fill:#EE6996;fill-rule:nonzero}  </style> </defs> <g id="Camada_x0020_1"> <metadata id="CorelCorpID_0Corel-Layer"/> <polygon class="fil0" points="0,0 9144,0 9144,9144 0,9144 "/> <path class="fil1" d="M3746 2623c254,-108 533,-168 826,-168 584,0 1114,237 1497,620 383,383 620,913 620,1497 0,584 -237,1114 -620,1497 -383,383 -913,620 -1497,620 -584,0 -1114,-237 -1497,-620 -383,-383 -620,-913 -620,-1497 0,-584 237,-1114 620,-1497 193,-193 420,-346 671,-452zm-38 203c141,134 607,604 986,1344 -897,362 -1795,41 -2017,-50 -13,56 -24,112 -32,169 285,112 1207,410 2124,35 54,114 105,233 152,359 -963,299 -1448,1129 -1582,1396 44,36 90,71 137,103 101,-210 556,-1048 1503,-1338 155,457 257,980 249,1562 58,-21 114,-44 169,-70 -1,-569 -102,-1084 -255,-1535 378,-85 827,-84 1355,68 8,-56 15,-113 18,-170 -557,-156 -1031,-154 -1431,-61 -50,-134 -105,-262 -162,-383 382,-189 757,-504 1078,-1007 -17,-18 -34,-36 -51,-53 -23,-23 -48,-46 -72,-69 -306,490 -665,794 -1030,975 -355,-694 -783,-1161 -972,-1348 -60,23 -111,46 -167,73z"/> </g> </svg>