<?xml version="1.0"?>
<svg xmlns="http://www.w3.org/2000/svg" id="Layer_1" data-name="Layer 1" viewBox="0 0 512 512" width="512" height="512"><title>Lemon</title><path d="M206.938,122.646a7.962,7.962,0,0,0,4.446-1.356c26.5-17.763,60.128-18.428,85.662-1.7a8,8,0,0,0,8.769-13.383C274.894,85.949,234.332,86.651,202.476,108a8,8,0,0,0,4.462,14.647Z"/><path d="M483.157,298H414.106c14.185-32,20.533-65.9,18.4-98.766-2.483-38.191-16.374-73.207-40.171-101.1-67.745-79.413-197.087-80.739-288.325-2.907-37.751,32.206-64.976,75.1-76.656,120.82C16.271,259.4,19.5,303.487,36.38,340.886a45.8,45.8,0,0,0-10.843,27.135,47.22,47.22,0,0,0,42.4,49.7,45.818,45.818,0,0,0,28.51-6.432c29.33,19.319,64.9,29.488,102.445,29.488q10.357,0,20.893-1.059a167.721,167.721,0,0,0,102.647,34.664c93.034,0,168.722-75.52,168.722-168.554A7.858,7.858,0,0,0,483.157,298ZM240.025,384.012A112.819,112.819,0,0,1,209.491,314h95.125ZM314,326.615v92.452a114.405,114.405,0,0,1-62.653-24.539Zm16,0,62.652,67.913A111.5,111.5,0,0,1,330,419.067Zm74.843,57.4L340.253,314h95.124A112.819,112.819,0,0,1,404.843,384.013ZM101.021,395.038a8,8,0,0,0-9.655.305c-12.644,10.219-31.679,8.27-42.439-4.341s-9.682-31.718,2.4-42.592a8,8,0,0,0,1.823-9.485c-17.285-35.04-20.942-77.28-10.3-118.941,10.872-42.548,36.278-82.547,71.54-112.628,84.526-72.108,203.75-71.623,265.768,1.076,21.54,25.25,34.119,57.118,36.376,91.839,2.113,32.514-4.823,65.729-20.07,97.729H161.711a7.858,7.858,0,0,0-8,7.831,167.405,167.405,0,0,0,49.03,118.985C165.052,425.568,129.46,415.193,101.021,395.038Zm221.414,63.516A152.291,152.291,0,0,1,169.914,314H193.46c3.9,67,60.255,121.691,128.975,121.691S447.507,381,451.408,314H474.95C470.775,394,403.963,458.554,322.435,458.554Z"/></svg>
