<?xml version="1.0"?>
<svg fill="#fff" xmlns="http://www.w3.org/2000/svg" id="Layer_1" data-name="Layer 1" viewBox="0 0 512 512" width="512" height="512"><title>Lemon</title><path d="M329,420.132a112.583,112.583,0,0,0,65.112-25.5L329,324.056Z"/><path d="M154.711,305.831a6.858,6.858,0,0,1,7-6.831H397.093c15.514-32,22.579-65.913,20.441-98.793-2.271-34.938-14.931-67.008-36.613-92.424C318.541,34.662,198.687,34.13,113.742,106.6c-35.417,30.214-60.937,70.4-71.859,113.141-10.7,41.892-7.021,84.378,10.37,119.631a7,7,0,0,1-1.595,8.3c-12.48,11.233-13.6,30.964-2.492,43.984s30.769,15.026,43.828,4.47a7,7,0,0,1,8.448-.267c29.208,20.7,65.9,31.105,104.678,29.861-.421-.411-.848-.772-1.265-1.189A166.421,166.421,0,0,1,154.711,305.831Zm48.321-197c31.521-21.124,71.65-21.825,102.236-1.784a7,7,0,0,1-7.674,11.71c-25.871-16.953-59.931-16.282-86.767,1.7a7,7,0,0,1-7.795-11.629Z"/><path d="M436.442,313H337.97l66.864,72.478A113.922,113.922,0,0,0,436.442,313Z"/><path d="M240.035,385.477,306.9,313H208.426A113.913,113.913,0,0,0,240.035,385.477Z"/><path d="M322.435,434.691C253.928,434.691,197.8,380,194.4,313H168.865a153.292,153.292,0,0,0,153.57,146.554C404.854,459.554,472.331,394,476,313H450.468C447.068,380,390.941,434.691,322.435,434.691Z"/><path d="M315,324.056l-65.113,70.579A115.313,115.313,0,0,0,315,420.132Z"/></svg>
