<?xml version='1.0' encoding='utf-8'?>
<svg xmlns="http://www.w3.org/2000/svg" width="91.44mm" height="91.44mm" version="1.1" style="shape-rendering:geometricPrecision; text-rendering:geometricPrecision; image-rendering:optimizeQuality; fill-rule:evenodd; clip-rule:evenodd" viewBox="0 0 9144 9144"> <defs> <style type="text/css">  .fil1 {fill:#FC5185} .fil0 {fill:transparent} .fil2 {fill:white;fill-rule:nonzero}  </style> </defs> <g id="Layer_x0020_1"> <metadata id="CorelCorpID_0Corel-Layer"/> <g id="_3166736521584"> <polygon class="fil0" points="0,0 9144,0 9144,9144 0,9144 "/> <path class="fil1" d="M5619 3967c-101,-101 -242,-164 -397,-164 -155,0 -296,63 -397,164 -96,96 -157,226 -164,371 0,4 1,8 1,12 0,49 -40,89 -90,89 -49,0 -90,-40 -90,-89 0,-4 1,-8 1,-12 -7,-145 -68,-275 -164,-371 -101,-101 -242,-164 -397,-164 -155,0 -296,63 -397,164 -102,102 -165,243 -165,398 0,264 133,512 316,727 282,332 679,584 896,704 217,-120 614,-372 896,-704 183,-215 316,-463 316,-727 0,-155 -63,-296 -165,-398z"/> <path class="fil2" d="M6601 4572c0,-560 -227,-1067 -594,-1435 -368,-367 -875,-594 -1435,-594 -560,0 -1067,227 -1435,594 -367,368 -594,875 -594,1435 0,560 227,1067 594,1435 368,367 875,594 1435,594 560,0 1067,-227 1435,-594 367,-368 594,-875 594,-1435zm-1940 -319c0,4 1,8 1,12 0,50 -40,90 -90,90 -49,0 -90,-40 -90,-90 0,-4 1,-8 1,-12 -7,-144 -68,-275 -164,-370 -101,-102 -242,-165 -397,-165 -155,0 -296,63 -397,165 -102,101 -165,242 -165,397 0,265 133,513 316,727 282,332 679,584 896,704 217,-120 614,-372 896,-704 183,-214 316,-462 316,-727 0,-155 -63,-296 -165,-397 -101,-102 -242,-165 -397,-165 -155,0 -296,63 -397,165 -96,95 -157,226 -164,370zm-89 -323c34,-64 77,-121 128,-172 134,-134 318,-216 522,-216 204,0 388,82 522,216 134,134 216,318 216,522 0,313 -151,598 -357,841 -320,376 -775,653 -990,768 -27,14 -58,13 -83,-1 -215,-115 -669,-391 -989,-767 -206,-243 -357,-528 -357,-841 0,-204 82,-388 216,-522 134,-134 318,-216 522,-216 204,0 388,82 522,216 51,51 94,108 128,172zm1559 -917c399,399 646,950 646,1559 0,609 -247,1160 -646,1559 -399,399 -950,646 -1559,646 -609,0 -1160,-247 -1559,-646 -399,-399 -646,-950 -646,-1559 0,-609 247,-1160 646,-1559 399,-399 950,-646 1559,-646 609,0 1160,247 1559,646z"/> </g> </g> </svg>