<svg height="456pt" viewBox="-62 0 456 456.60307" width="456pt" xmlns="http://www.w3.org/2000/svg"><path fill="#fff" d="m63.792969 434.816406c27.214843 20.789063 59.597656 26.761719 93.679687 17.542969 2.324219-.585937 4.707032-.925781 7.101563-1.015625h3.152343c2.398438.089844 4.777344.429688 7.101563 1.015625 9.894531 2.75 20.109375 4.175781 30.378906 4.242187 22.832031 0 44.328125-7.324218 63.300781-21.820312 19.523438-14.90625 35.835938-37.011719 47.179688-63.953125 10.695312-25.464844 16.238281-52.796875 16.308594-80.417969 0-52.300781-16.742188-94.371094-47.140625-118.480468-27.234375-21.597657-64.644531-27.625-108.191407-17.441407-.15625.039063-.3125.078125-.46875.125-3.261718.921875-6.636718 1.378907-10.027343 1.359375-3.429688-.007812-6.84375-.472656-10.152344-1.382812-.125-.035156-.253906-.070313-.378906-.101563-43.546875-10.183593-80.957031-4.152343-108.191407 17.445313-30.398437 24.109375-47.144531 66.1875-47.144531 118.484375.070313 27.621093 5.617188 54.957031 16.3125 80.425781 11.34375 26.941406 27.65625 49.0625 47.179688 63.972656zm-3.921875-247.210937c22.5625-17.894531 53.1875-22.5 91.027344-13.679688 4.945312 1.34375 10.046874 2.03125 15.171874 2.046875 5.195313.039063 10.367188-.65625 15.371094-2.058594 37.816406-8.800781 68.429688-4.199218 90.984375 13.691407 25.515625 20.238281 39.566407 56.75 39.566407 102.8125 0 51.449219-22.355469 103.089843-55.625 128.503906-22.460938 17.152344-48.210938 21.933594-76.542969 14.207031-.160157-.042968-.320313-.082031-.484375-.117187-3.652344-.847657-7.375-1.359375-11.125-1.527344-.105469 0-.214844-.140625-.320313-.140625h-3.492187c-.109375 0-.21875.136719-.324219.140625-3.746094.144531-7.46875.632813-11.125 1.457031-.160156.035156-.324219.109375-.484375.15625-28.328125 7.722656-54.082031 2.960938-76.539062-14.191406-33.273438-25.414062-55.628907-77.050781-55.628907-128.5 0-46.0625 14.054688-82.5625 39.570313-102.800781zm0 0"/><path fill="#fff"  d="m145.394531 94.921875 9.570313 44.113281c1.164062 5.390625 6.472656 8.820313 11.863281 7.660156l44.492187-9.515624c18.597657-4.058594 34.847657-15.28125 45.226563-31.238282 10.425781-15.875 14.113281-35.242187 10.246094-53.839844-.003907-.035156-.011719-.070312-.019531-.105468l-9.570313-44.113282c-1.167969-5.386718-6.472656-8.8125-11.863281-7.660156l-44.492188 9.519532c-18.597656 4.058593-34.84375 15.28125-45.226562 31.234374-10.425782 15.875-14.113282 35.246094-10.246094 53.839844.003906.035156.011719.070313.019531.105469zm26.976563-43.019531c7.511718-11.546875 19.269531-19.675782 32.726562-22.621094l34.675782-7.417969 7.441406 34.316407c2.773437 13.417968.101562 27.382812-7.417969 38.835937-7.511719 11.546875-19.269531 19.675781-32.730469 22.621094l-34.671875 7.414062-7.441406-34.3125c-2.773437-13.417969-.105469-27.382812 7.417969-38.835937zm0 0"/></svg>