<svg width="1190" height="1093" viewBox="0 0 1190 1093" fill="none" xmlns="http://www.w3.org/2000/svg">
<rect width="1190" height="1093" fill="black"/>
<ellipse cx="595.5" cy="546" rx="441.5" ry="443" fill="black"/>
<g clip-path="url(#clip0_2_20)">
<path d="M316.886 493.946H283.57V605.262H316.886V493.946Z" fill="white"/>
<path d="M499.021 580.133L477.82 493.946H444.817L478.968 605.262H518.446L552.911 493.946H519.699L499.021 580.133Z" fill="white"/>
<path d="M610.034 490.416C575.882 490.416 555.204 513.883 555.204 549.604C555.204 587.09 576.091 609 610.034 609C644.185 609 664.864 585.532 664.864 549.812C664.968 512.222 644.289 490.416 610.034 490.416ZM610.034 584.494C596.561 584.494 589.773 574.214 589.773 549.5C589.773 525.41 596.561 514.714 610.034 514.714C623.506 514.714 630.295 524.994 630.295 549.708C630.295 573.799 623.611 584.494 610.034 584.494Z" fill="white"/>
<path d="M300.277 444C290.146 444 282 452.099 282 462.172C282 472.244 290.146 480.344 300.277 480.344C310.407 480.344 318.553 472.244 318.553 462.172C318.553 452.099 310.407 444 300.277 444Z" fill="white"/>
<path d="M404.504 491.35C399.804 490.727 395.418 490.416 391.135 490.312C389.465 490.312 387.898 490.312 386.332 490.312C364.817 490.52 348.525 495.711 338.394 500.384L338.29 510.249L338.499 515.96V605.47H370.248V514.091C375.052 511.703 379.648 510.976 384.452 510.768C384.452 510.768 385.287 510.664 386.54 510.664C387.271 510.664 388.003 510.664 388.733 510.768C390.405 510.872 392.285 511.184 393.851 511.911C397.611 513.572 399.804 515.13 401.162 519.179C401.162 519.179 401.475 520.529 401.475 521.567C401.475 521.983 401.788 526.552 401.788 532.263C401.788 533.509 401.893 534.859 401.893 536.105V605.366H435.209V523.956C434.477 501.319 418.185 493.635 404.504 491.35Z" fill="white"/>
<path d="M908 598.928C907.893 592.178 907.791 579.095 907.791 571.618V526.552C908.835 500.592 893.903 488.754 861.419 488.754C848.782 488.754 836.461 490.935 821.631 495.297L826.853 514.922C841.265 512.014 847.846 511.495 855.052 511.08C867.688 510.353 874.686 516.687 874.269 523.956L874.371 535.171H863.719C829.774 535.171 811.29 548.358 811.29 572.657C811.29 586.052 818.079 596.436 829.672 601.524C835.728 604.431 844.711 604.743 857.973 604.743C888.89 604.847 906.122 604.847 907.893 604.639L908 602.147V598.928ZM874.269 586.363C871.867 586.571 866.538 586.883 857.347 585.74C849.2 584.702 844.604 579.822 844.604 569.853C844.604 557.808 851.708 553.55 866.849 553.55H874.269V586.363Z" fill="white"/>
<path d="M680.43 605.262H713.746V446.699L680.43 449.918V605.262Z" fill="white"/>
<path d="M795.834 585.222C782.674 586.363 779.02 584.598 777.35 581.899C775.992 579.718 775.783 577.537 775.468 572.864C775.366 572.138 775.366 571.307 775.366 570.58C775.366 570.269 775.366 569.957 775.366 569.542C775.366 569.022 775.366 568.607 775.366 568.088C775.366 551.37 775.366 534.651 775.366 518.037V516.583H805.127V494.154H775.259V457.291C764.816 459.368 752.91 462.172 742.57 464.249V494.154H728.054V515.753C728.054 516.168 728.158 516.48 728.158 516.583C728.681 516.583 729.203 516.687 729.725 516.687C733.484 516.687 737.244 516.687 741.004 516.687C741.526 516.687 742.048 516.791 742.675 516.791V518.557C742.675 532.783 742.675 547.009 742.675 561.131C742.675 565.492 742.57 569.853 742.78 574.215C742.988 579.51 742.675 585.845 744.555 590.829C747.792 599.344 755.312 604.535 763.354 606.716C766.487 607.547 771.498 608.377 775.366 608.585C780.272 608.793 784.557 608.689 789.361 608.273C795.102 607.755 800.532 606.301 806.486 604.535C804.919 597.578 803.458 591.659 801.682 584.598C797.61 585.118 799.804 584.91 795.834 585.222Z" fill="white"/>
</g>
<path d="M790.6 158.8C732 129.2 665.7 112.5 595.5 112.5C356.4 112.5 162.5 306.4 162.5 545.5C162.5 784.6 356.4 978.5 595.5 978.5C834.6 978.5 1028.5 784.6 1028.5 545.5C1028.5 534.2 1028.1 523 1027.2 511.9" stroke="white" stroke-width="20.1642" stroke-miterlimit="10"/>
<path d="M814.7 190.6C813.6 192.2 813 193.8 812.8 195.4C812.6 196.9 812.8 198.4 813.3 199.8C813.8 201.2 814.6 202.5 815.7 203.6C816.8 204.8 818.1 205.9 819.6 206.8C821.2 207.9 822.8 208.6 824.2 208.9C825.6 209.3 826.9 209.4 828 209.2C829.1 209.1 830.1 208.7 830.9 208.1C831.7 207.5 832.4 206.8 832.9 206C834 204.4 834.4 202.9 834.1 201.6C833.9 200.3 833.4 199.3 832.7 198.4C831.5 196.9 830.1 195.2 828.4 193.4C826.7 191.6 824.6 189.3 822.2 186.6C820.7 184.9 819.5 183.3 818.8 181.7C818.1 180.1 817.7 178.6 817.6 177.2C817.5 175.8 817.6 174.4 818 173.1C818.4 171.8 819 170.6 819.7 169.5C821.1 167.3 822.7 165.7 824.7 164.7C826.6 163.7 828.7 163.1 830.8 163.1C833 163 835.1 163.3 837.3 164C839.5 164.7 841.6 165.7 843.5 166.9C845.7 168.3 847.7 170 849.3 171.8C850.9 173.7 852.1 175.7 852.9 177.8C853.7 179.9 853.9 182.1 853.7 184.4C853.5 186.7 852.7 188.9 851.2 191.2L843.7 186.4C845.3 183.5 845.6 180.9 844.6 178.7C843.6 176.5 841.9 174.5 839.3 172.9C838.4 172.3 837.5 171.8 836.4 171.4C835.3 171 834.3 170.7 833.3 170.7C832.3 170.6 831.3 170.8 830.3 171.2C829.3 171.6 828.5 172.3 827.8 173.4C826.8 174.9 826.5 176.4 826.9 177.9C827.3 179.4 828.1 180.8 829.4 182.2C829.5 182.3 830.1 182.9 831 183.9C831.9 184.9 832.9 186 834.1 187.3C835.2 188.5 836.3 189.7 837.4 190.9C838.5 192.1 839.3 192.9 839.7 193.4C840.8 194.7 841.7 196.1 842.2 197.6C842.8 199 843.1 200.5 843.1 201.9C843.2 203.3 843 204.7 842.6 206.1C842.2 207.4 841.7 208.7 841 209.8C839.5 212.2 837.6 214 835.6 215C833.5 216.1 831.3 216.6 829 216.7C826.7 216.8 824.4 216.4 822 215.6C819.6 214.8 817.4 213.7 815.3 212.3C812.8 210.7 810.7 208.9 809 207C807.2 205 805.9 202.9 805.1 200.6C804.3 198.3 804 195.9 804.3 193.3C804.6 190.7 805.6 188.1 807.2 185.4L814.7 190.6Z" fill="white" stroke="white" stroke-width="2" stroke-miterlimit="10"/>
<path d="M895.9 229.6C896.6 228.2 897.1 226.9 897.4 225.5C897.7 224.1 897.8 222.8 897.6 221.4C897.4 220 896.9 218.7 896.2 217.4C895.5 216.1 894.4 214.8 893 213.6C891 211.8 888.8 210.7 886.6 210.2C884.4 209.7 882.2 209.8 880.1 210.3C878 210.9 875.9 211.8 873.9 213.2C871.9 214.6 870.1 216.2 868.5 218C866.9 219.8 865.6 221.8 864.5 224C863.4 226.2 862.7 228.3 862.5 230.5C862.2 232.7 862.5 234.9 863.2 237C864 239.1 865.4 241.1 867.4 242.9C868.9 244.2 870.5 245.1 872.1 245.6C873.7 246.1 875.3 246.2 876.9 246C878.5 245.8 880.1 245.3 881.6 244.5C883.1 243.7 884.6 242.6 886 241.4L892.6 247.1C890.4 249.3 888.1 250.9 885.6 252.1C883.1 253.3 880.5 253.9 877.9 254C875.3 254.1 872.6 253.7 870 252.8C867.4 251.9 864.9 250.4 862.6 248.3C859.7 245.8 857.6 243 856.3 240C854.9 236.9 854.3 233.8 854.3 230.6C854.3 227.4 855 224.2 856.3 221C857.6 217.8 859.4 214.8 861.9 212.1C864.3 209.4 867 207.2 869.9 205.4C872.9 203.7 876 202.6 879.1 202.2C882.3 201.7 885.5 202 888.7 202.9C891.9 203.8 895 205.5 897.8 208C900 209.9 901.7 212 903.1 214.2C904.5 216.5 905.4 218.8 905.9 221.2C906.4 223.6 906.3 226 905.8 228.4C905.3 230.8 904.2 233.1 902.6 235.4L895.9 229.6Z" fill="white" stroke="white" stroke-width="2" stroke-miterlimit="10"/>
<path d="M929.8 241L935.8 247.6L898 281.9L892 275.3L929.8 241Z" fill="white" stroke="white" stroke-width="2" stroke-miterlimit="10"/>
<path d="M953.1 267.7L974.8 297.4L968.6 302L952.2 279.5L941.4 287.4L956.6 308.2L950.7 312.5L935.5 291.7L923.4 300.5L940.1 323.4L933.9 328L911.9 297.9L953.1 267.7Z" fill="white" stroke="white" stroke-width="2" stroke-miterlimit="10"/>
<path d="M988.2 318.6L992.6 326.9L970.3 365.1L970.4 365.2L1003.7 347.6L1007.7 355.1L962.6 379L958.2 370.7L980.5 332.6L980.4 332.4L947 350L943 342.5L988.2 318.6Z" fill="white" stroke="white" stroke-width="2" stroke-miterlimit="10"/>
<path d="M1014.8 418.8C1016.1 418 1017.2 417 1018.1 416C1019.1 415 1019.8 413.8 1020.3 412.5C1020.8 411.2 1021.1 409.8 1021.1 408.3C1021.1 406.8 1020.8 405.2 1020.2 403.4C1019.3 400.8 1018 398.8 1016.3 397.3C1014.6 395.8 1012.7 394.8 1010.6 394.2C1008.5 393.6 1006.2 393.5 1003.8 393.7C1001.4 393.9 999 394.4 996.7 395.2C994.4 396 992.2 397.1 990.2 398.4C988.2 399.7 986.5 401.3 985.2 403.1C983.9 404.9 983 406.9 982.6 409.1C982.2 411.3 982.5 413.7 983.4 416.3C984.1 418.2 985 419.7 986.1 421C987.3 422.2 988.6 423.1 990.1 423.8C991.6 424.4 993.2 424.8 995 424.8C996.7 424.9 998.5 424.7 1000.3 424.2L1003.2 432.4C1000.3 433.2 997.4 433.5 994.6 433.3C991.8 433.1 989.3 432.4 986.9 431.2C984.5 430 982.5 428.4 980.7 426.2C978.9 424.1 977.5 421.6 976.5 418.7C975.2 415.1 974.8 411.6 975.1 408.3C975.4 405 976.4 401.9 978 399.1C979.6 396.3 981.8 393.9 984.5 391.7C987.2 389.6 990.3 387.9 993.7 386.7C997.1 385.5 1000.6 384.9 1004 384.9C1007.4 384.9 1010.6 385.5 1013.6 386.7C1016.6 387.9 1019.3 389.7 1021.6 392.1C1023.9 394.5 1025.7 397.5 1027 401.1C1027.9 403.8 1028.5 406.5 1028.5 409.1C1028.6 411.7 1028.2 414.2 1027.5 416.5C1026.7 418.8 1025.5 420.9 1023.9 422.7C1022.3 424.5 1020.2 426 1017.7 427.2L1014.8 418.8Z" fill="white" stroke="white" stroke-width="2" stroke-miterlimit="10"/>
<path d="M1039.2 446.4L1046.2 482.5L1038.6 484L1033.3 456.7L1020.2 459.2L1025.1 484.5L1017.9 485.9L1013 460.6L998.3 463.4L1003.7 491.2L996.1 492.7L989 456.1L1039.2 446.4Z" fill="white" stroke="white" stroke-width="2" stroke-miterlimit="10"/>
<defs>
<clipPath id="clip0_2_20">
<rect width="626" height="165" fill="white" transform="translate(282 444)"/>
</clipPath>
</defs>
</svg>
